{"title":"Kid Racer 2010 DvDRip Ac3 Feel-Free","uid":5824935,"size":1111190599,"categoryP":"video","categoryS":"movies","magnet":"?xt=urn:btih:e99d109a1d723bb3e40e12b5b2c9d3bb8087b555&amp;dn=Kid+Racer+2010+DvDRip+Ac3+Feel-Free&amp;tr=udp%3A%2F%2Ftracker.openbittorrent.com%3A80&amp;tr=udp%3A%2F%2Fopen.demonii.com%3A1337&amp;tr=udp%3A%2F%2Ftracker.coppersurfer.tk%3A6969&amp;tr=udp%3A%2F%2Fexodus.desync.com%3A6969","seeders":0,"leechers":0,"uploader":"nokia777","files":9,"time":1284221810,"description":"Description:\nPlot\nFourteen year old go racecar enthusiast Marc Benton (Randy Shelly) attempts to raise enough money to buy his own go cart and compete in a local go cart race. Though at first it looks like Marc's dream is a long shot, his goal comes into reach when he befriends kindly track manager Buddy (Priscilla Barnes) and lands a job repairing race-damaged go carts. Over time, with a little help from Buddy, Marc learns that being a true champion takes much more than fast reflexes alone.\n &lt;a href=&quot;\nhttp://www.starshare.ro/bitbucket/vlcsnap2010-09-11-06h47m40s218.jpg&quot; rel=&quot;nofollow&quot; target=&quot;_NEW&quot;&gt;\nhttp://www.starshare.ro/bitbucket/vlcsnap2010-09-11-06h47m40s218.jpg&lt;/a&gt;\n &lt;a href=&quot;\nhttp://www.starshare.ro/bitbucket/vlcsnap2010-09-11-06h47m44s17.jpg&quot; rel=&quot;nofollow&quot; target=&quot;_NEW&quot;&gt;\nhttp://www.starshare.ro/bitbucket/vlcsnap2010-09-11-06h47m44s17.jpg&lt;/a&gt;\n &lt;a href=&quot;\nhttp://www.starshare.ro/bitbucket/vlcsnap2010-09-11-06h47m48s59.jpg&quot; rel=&quot;nofollow&quot; target=&quot;_NEW&quot;&gt;\nhttp://www.starshare.ro/bitbucket/vlcsnap2010-09-11-06h47m48s59.jpg&lt;/a&gt;\n\nGenre:Comedy\nLanguage: English &lt;a href=&quot;\nhttp://www.imdb.com/title/tt1715823/&quot; rel=&quot;nofollow&quot; target=&quot;_NEW&quot;&gt;\nhttp://www.imdb.com/title/tt1715823/&lt;/a&gt;\nSourceVD\n\nGeneral\nComplete name :Kid Racer 2010 DvDRip XviD Ac3 Feel-Free\nFormat : AVI\nFormat/Info : Audio Video Interleave\nFile size : 1.03 GiB\nDuration : 1h 20mn\nOverall bit rate : 1 848 Kbps\nVideo #0\nCodec ID : XVID\nCodec ID/Hint : XviD\nDuration : 1h 20mn\nBit rate : 1 517 Kbps\nWidth : 640 pixels\nHeight : 352 pixels\nDisplay aspect ratio : 16:9\nFrame rate : 29.970 fps\nResolution : 24 bits\nColorimetry : 4:2:0\nScan type : Progressive\nBits/(Pixel*Frame) : 0.225\nStream size : 869 MiB (82%)\nWriting library : XviD 1.2.1 (UTC 2008-12-04)\nAudio #1\nID : 1\nFormat : AC-3\nFormat/Info : Audio Coding 3\nCodec ID : 2000\nDuration : 1h 20mn\nBit rate mode : Constant\nBit rate : 320 Kbps\nChannel(s) : 6 channels\nChannel positions : Front: L C R, Surround: L R, LFE\nSampling rate : 48.0 KHz\nStream size : 183 MiB (17%)\nAlignment : Split accross interleaves\nInterleave, duration : 33 ms (1.00 video frame)\nInterleave, preload duration : 500 ms","torrent":{"xt":"urn:btih:e99d109a1d723bb3e40e12b5b2c9d3bb8087b555","amp;dn":"Kid+Racer+2010+DvDRip+Ac3+Feel-Free","amp;tr":["udp%3A%2F%2Ftracker.openbittorrent.com%3A80","udp%3A%2F%2Fopen.demonii.com%3A1337","udp%3A%2F%2Ftracker.coppersurfer.tk%3A6969","udp%3A%2F%2Fexodus.desync.com%3A6969"],"infoHash":"e99d109a1d723bb3e40e12b5b2c9d3bb8087b555","infoHashBuffer":{"type":"Buffer","data":[233,157,16,154,29,114,59,179,228,14,18,181,178,201,211,187,128,135,181,85]},"announce":[],"urlList":[]}}